<?xml version="1.0" standalone="no"?>
<!DOCTYPE svg PUBLIC "-//W3C//DTD SVG 20010904//EN"
 "http://www.w3.org/TR/2001/REC-SVG-20010904/DTD/svg10.dtd">
<svg version="1.0" xmlns="http://www.w3.org/2000/svg"
 width="1011.000000pt" height="1826.000000pt" viewBox="0 0 1011.000000 1826.000000"
 preserveAspectRatio="xMidYMid meet">

<g transform="translate(0.000000,1826.000000) scale(0.100000,-0.100000)"
fill="#000000" stroke="none">
<path d="M570 9060 l0 -8810 2033 0 c2092 0 2330 4 2622 40 636 80 1189 290
1655 629 315 229 617 547 850 896 506 756 790 1703 859 2870 55 919 -14 1686
-214 2383 -78 274 -136 424 -248 648 -441 879 -1233 1467 -2322 1724 -181 43
-175 40 -175 99 l0 49 78 17 c642 138 1192 440 1582 870 474 523 774 1259 894
2195 41 317 50 498 51 975 0 319 -4 515 -13 610 -35 363 -92 690 -167 965
-325 1183 -1109 2003 -2290 2394 -252 84 -607 164 -895 201 -386 50 -295 48
-2362 52 l-1938 4 0 -8811z m3885 7722 c299 -38 469 -70 671 -127 1019 -287
1655 -1025 1848 -2145 97 -556 85 -1365 -30 -2030 -114 -667 -342 -1220 -658
-1598 -363 -436 -913 -710 -1626 -812 -284 -41 -338 -43 -1639 -47 -1046 -4
-1265 -2 -1272 9 -10 16 -12 6752 -2 6762 12 12 2607 0 2708 -12z m-20 -7842
c504 -36 912 -140 1297 -332 619 -309 1084 -831 1357 -1523 191 -482 283 -999
298 -1665 17 -803 -81 -1596 -268 -2170 -166 -506 -387 -887 -699 -1201 -393
-396 -847 -605 -1515 -696 -120 -17 -247 -18 -1645 -18 l-1515 0 -3 3785 c-1
2082 0 3795 3 3808 l5 22 1273 0 c739 0 1331 -4 1412 -10z"/>
</g>
</svg>
